<?xml version="1.0" standalone="no"?>
<!DOCTYPE svg PUBLIC "-//W3C//DTD SVG 20010904//EN"
 "http://www.w3.org/TR/2001/REC-SVG-20010904/DTD/svg10.dtd">
<svg version="1.0" xmlns="http://www.w3.org/2000/svg"
 width="878.000000pt" height="1280.000000pt" viewBox="0 0 878.000000 1280.000000"
 preserveAspectRatio="xMidYMid meet">
<metadata>
Created by potrace 1.15, written by Peter Selinger 2001-2017
</metadata>
<g transform="translate(0.000000,1280.000000) scale(0.100000,-0.100000)"
fill="#ffffff" stroke="none">
<path d="M3072 12753 c-21 -52 -56 -169 -96 -328 -29 -116 -126 -549 -126
-564 0 -5 25 -22 55 -37 47 -22 64 -26 106 -21 89 11 181 82 230 179 19 37 21
52 15 117 -22 246 -123 701 -156 701 -4 0 -17 -21 -28 -47z"/>
<path d="M3256 11896 c-49 -71 -125 -142 -179 -166 -59 -27 -147 -26 -218 4
l-57 23 -36 -55 c-71 -107 -95 -252 -53 -316 9 -13 42 -37 74 -53 50 -24 70
-28 143 -28 74 0 93 4 150 31 136 65 235 172 285 308 24 65 27 87 23 147 -4
57 -11 79 -35 112 -16 23 -36 43 -44 45 -9 2 -31 -20 -53 -52z"/>
<path d="M3305 11428 c-71 -96 -141 -158 -221 -195 -50 -24 -72 -28 -145 -28
-78 0 -92 3 -158 36 l-72 36 -33 -41 c-81 -100 -126 -217 -126 -325 0 -90 18
-128 81 -171 75 -51 140 -69 244 -69 155 -1 282 58 416 191 64 64 86 94 130
183 51 101 53 110 57 199 5 105 -5 144 -48 205 -52 71 -58 70 -125 -21z"/>
<path d="M3400 10868 c-99 -149 -234 -266 -357 -309 -71 -24 -182 -25 -254 -2
-30 10 -90 42 -134 71 l-79 55 -50 -54 c-98 -106 -130 -236 -87 -350 22 -59
55 -92 142 -142 58 -34 186 -67 260 -67 185 0 411 93 566 234 100 91 149 238
141 425 -3 64 -11 120 -21 143 -15 37 -50 78 -65 78 -5 0 -33 -37 -62 -82z"/>
<path d="M3507 10335 c-74 -117 -245 -264 -373 -321 -122 -54 -284 -69 -412
-39 -72 17 -192 70 -265 117 -57 37 -60 35 -107 -60 -89 -180 -94 -425 -11
-541 13 -17 49 -49 81 -71 216 -147 473 -165 723 -51 206 93 422 301 499 481
29 68 32 84 33 180 0 84 -5 118 -23 172 -21 61 -94 178 -110 178 -4 -1 -20
-21 -35 -45z"/>
<path d="M3536 9494 c-209 -197 -533 -334 -788 -334 -130 0 -294 50 -410 127
l-28 17 -41 -39 c-51 -50 -82 -102 -116 -196 -22 -62 -26 -92 -27 -184 -2
-178 24 -207 249 -278 143 -45 267 -60 443 -54 215 7 373 45 565 137 117 55
285 169 336 226 116 132 139 299 64 453 -25 52 -149 192 -169 191 -5 -1 -40
-30 -78 -66z"/>
<path d="M3720 8787 c-19 -22 -69 -67 -110 -100 -203 -163 -451 -280 -680
-323 -105 -20 -315 -15 -405 10 -83 23 -196 78 -273 132 l-64 46 -58 -60
c-171 -175 -249 -577 -139 -716 48 -60 317 -166 514 -202 147 -27 384 -25 533
5 366 71 755 283 884 480 121 185 124 398 11 590 -40 68 -145 182 -165 180 -7
0 -29 -19 -48 -42z"/>
<path d="M5948 8686 c-26 -36 -142 -119 -245 -176 -130 -73 -315 -150 -534
-225 -104 -36 -218 -79 -252 -96 -180 -91 -310 -214 -401 -381 -36 -64 -86
-197 -86 -227 -1 -38 -14 -39 -100 -11 -82 28 -86 31 -117 81 -40 66 -126 170
-163 197 l-28 21 -68 -64 c-191 -184 -516 -358 -813 -437 -119 -32 -253 -44
-451 -40 -180 3 -405 87 -573 216 -99 75 -96 75 -172 5 l-43 -40 -76 31 c-52
20 -94 30 -131 30 -51 0 -58 -3 -95 -40 -35 -35 -41 -38 -46 -23 -4 10 -24 54
-45 99 -77 158 -225 308 -390 394 -42 22 -164 70 -270 106 -384 132 -624 252
-763 384 l-51 48 3 -177 c3 -122 -1 -216 -12 -306 -24 -186 -31 -447 -17 -590
43 -434 184 -698 500 -936 118 -88 197 -125 307 -140 152 -21 315 28 449 135
34 28 56 35 145 49 58 10 116 20 130 24 l24 6 -19 -25 c-11 -14 -51 -65 -89
-112 -201 -255 -252 -472 -125 -538 19 -9 77 -22 129 -28 52 -6 144 -24 203
-40 59 -17 127 -30 150 -30 176 0 200 248 57 595 -22 55 -44 107 -47 115 -8
18 -3 14 166 -138 69 -63 146 -126 171 -140 25 -14 47 -27 49 -28 2 -2 -11
-22 -28 -46 -35 -50 -46 -92 -37 -144 6 -28 32 -62 119 -153 62 -64 138 -152
171 -197 75 -103 105 -124 177 -124 45 0 64 6 103 31 56 38 123 129 172 235
41 87 108 288 119 352 4 23 10 42 14 42 4 0 16 -46 26 -102 58 -333 82 -416
139 -491 61 -80 170 -136 243 -123 31 6 54 24 128 101 57 59 120 112 172 144
93 59 161 127 170 171 4 22 10 29 22 26 9 -3 59 -10 111 -15 52 -6 142 -24
199 -41 121 -35 144 -36 191 -11 120 63 113 285 -16 600 -19 46 -33 85 -32 87
2 1 53 -42 113 -98 206 -188 276 -230 386 -231 110 0 175 42 189 123 l6 35 58
-55 c174 -163 325 -425 388 -676 19 -75 23 -116 23 -259 0 -155 -2 -179 -27
-268 -87 -309 -253 -493 -504 -557 -146 -38 -265 -24 -411 46 -318 152 -414
539 -189 759 172 168 470 182 605 29 66 -75 93 -203 62 -296 -45 -138 -299
-198 -407 -97 l-21 20 -6 -37 c-7 -42 6 -122 27 -162 19 -38 44 -58 100 -83
69 -30 179 -24 255 15 145 74 244 255 245 446 0 102 -16 173 -60 261 -85 170
-239 316 -390 371 -72 26 -210 35 -284 19 -214 -46 -388 -233 -437 -469 -53
-257 71 -599 298 -822 294 -289 698 -315 1124 -73 533 303 798 912 651 1494
l-23 93 24 -30 c39 -49 100 -175 123 -254 18 -61 23 -110 27 -270 6 -221 -3
-299 -48 -433 -61 -183 -135 -279 -517 -669 -327 -334 -427 -445 -488 -538
-163 -252 -188 -558 -74 -900 95 -289 281 -592 535 -875 l36 -40 -40 82 c-249
507 -241 888 27 1273 78 112 180 228 387 440 264 272 339 374 420 571 82 204
115 381 115 629 0 265 -43 488 -141 725 -134 326 -329 556 -584 689 -38 20
-104 65 -145 101 -41 35 -110 84 -153 108 l-78 45 26 20 26 20 72 -20 c318
-89 592 -251 774 -460 78 -88 141 -188 222 -346 191 -378 264 -630 265 -912 0
-296 -50 -484 -313 -1173 -236 -617 -369 -999 -420 -1207 -96 -390 -100 -759
-11 -1111 119 -468 437 -943 853 -1274 144 -114 162 -122 87 -35 -100 115
-147 176 -223 290 -286 433 -330 840 -141 1304 77 190 173 358 429 756 193
301 295 472 374 635 180 368 251 663 251 1048 0 452 -100 843 -328 1292 -356
699 -1020 1294 -1612 1445 -25 6 -50 13 -57 15 -8 3 2 34 32 97 50 107 88 231
113 368 24 138 23 536 -2 720 -14 104 -17 175 -14 308 3 94 2 172 -1 172 -3 0
-14 -11 -23 -24z m-4358 -1721 c0 -8 -2 -15 -4 -15 -2 0 -6 7 -10 15 -3 8 -1
15 4 15 6 0 10 -7 10 -15z m2466 -400 c-30 -35 -75 -93 -100 -128 -45 -63
-126 -214 -126 -235 0 -25 -22 -21 -68 13 -83 59 -239 119 -417 160 l-30 7 38
14 c21 7 103 27 182 44 200 43 308 82 363 134 21 19 133 52 190 55 21 1 17 -6
-32 -64z"/>
<path d="M5150 4231 c-321 -328 -774 -416 -1332 -260 -58 16 -172 54 -254 84
-81 29 -141 48 -133 41 31 -29 221 -141 324 -192 124 -60 289 -118 403 -140
42 -9 133 -16 202 -16 l125 -1 52 -47 c58 -53 121 -76 178 -66 35 7 49 26 19
26 -38 0 -97 25 -134 57 -22 19 -40 38 -40 41 0 4 27 14 60 23 55 15 61 14 75
-1 49 -54 187 -95 245 -72 l25 10 -30 6 c-88 20 -120 31 -155 57 -22 16 -40
33 -40 37 0 4 21 18 46 30 41 20 48 21 63 8 9 -8 41 -26 71 -40 64 -30 154
-35 186 -11 17 13 15 14 -33 15 -38 0 -67 8 -114 33 -34 17 -64 37 -66 44 -2
6 7 19 22 29 24 16 28 15 88 -12 72 -33 173 -39 217 -14 24 14 22 15 -50 21
-72 5 -149 33 -166 60 -3 6 9 27 28 46 34 34 36 34 59 19 35 -22 147 -49 177
-41 39 9 82 26 82 34 0 3 -20 5 -44 3 -52 -4 -140 20 -175 47 l-25 19 51 74
c44 63 89 140 81 137 -2 -1 -41 -40 -88 -88z"/>
<path d="M755 4265 c15 -27 46 -74 68 -104 31 -42 37 -55 26 -63 -50 -33 -102
-51 -163 -57 -70 -7 -70 -8 -41 -21 50 -22 134 -17 200 14 l59 27 33 -33 c18
-17 33 -35 33 -40 0 -4 -20 -19 -45 -34 -34 -19 -67 -28 -123 -33 l-77 -7 40
-18 c53 -24 130 -16 206 21 l57 29 26 -21 26 -21 -22 -21 c-38 -35 -88 -55
-150 -60 -93 -9 -65 -33 37 -33 51 0 113 23 165 60 l28 20 39 -22 c21 -12 40
-23 42 -25 2 -1 -4 -13 -15 -24 -24 -27 -111 -69 -144 -69 -38 0 -57 -16 -28
-23 65 -18 142 2 217 57 44 32 48 33 81 20 19 -7 45 -13 58 -13 31 -1 28 -14
-10 -47 -43 -35 -105 -63 -143 -64 -29 -1 -29 -1 -11 -15 46 -35 142 -7 218
63 l43 40 120 0 c202 1 391 50 610 158 121 61 330 187 316 192 -4 1 -33 -7
-62 -19 -97 -39 -282 -99 -379 -124 -367 -92 -691 -76 -954 48 -128 61 -205
115 -315 221 l-94 91 28 -50z"/>
<path d="M7890 1711 c-254 -36 -482 -228 -565 -476 -53 -158 -43 -340 27 -483
85 -172 282 -282 483 -269 166 10 289 109 331 265 19 73 11 134 -27 200 -26
46 -125 139 -136 129 -2 -3 7 -21 20 -41 78 -114 53 -294 -54 -390 -76 -68
-171 -83 -291 -46 -162 50 -251 218 -214 400 29 138 132 309 233 386 197 150
579 108 787 -87 124 -116 168 -215 169 -379 0 -92 -3 -116 -32 -200 -44 -132
-110 -239 -206 -336 -91 -91 -183 -150 -305 -195 -151 -55 -215 -64 -435 -64
-189 1 -263 8 -395 41 -55 14 -1 -15 100 -54 454 -173 844 -142 1092 87 225
208 349 567 294 854 -33 170 -113 314 -244 438 -147 139 -306 210 -502 223
-41 2 -100 1 -130 -3z"/>
</g>
</svg>
